<svg id="outline" height="512" viewBox="0 0 512 512" width="512" xmlns="http://www.w3.org/2000/svg"><path d="m352 472v-200h-16v200a8.00917 8.00917 0 0 1 -8 8h-288a8.00917 8.00917 0 0 1 -8-8v-432a8.00917 8.00917 0 0 1 8-8h288a8.00917 8.00917 0 0 1 8 8v40h16v-40a24.0275 24.0275 0 0 0 -24-24h-288a24.0275 24.0275 0 0 0 -24 24v432a24.0275 24.0275 0 0 0 24 24h288a24.0275 24.0275 0 0 0 24-24z"/><circle cx="56" cy="56" r="8"/><circle cx="80" cy="56" r="8"/><circle cx="104" cy="56" r="8"/><path d="m488 96h-416a8.00008 8.00008 0 0 0 -8 8v144a8.00008 8.00008 0 0 0 8 8h416a8.00008 8.00008 0 0 0 8-8v-144a8.00008 8.00008 0 0 0 -8-8zm-8 144h-400v-128h400z"/><path d="m408 208a39.75963 39.75963 0 0 0 22.04205-6.644l23.21283 23.21338 11.31348-11.31446-23.21228-23.21264a39.98527 39.98527 0 1 0 -33.35608 17.95772zm0-64a24 24 0 1 1 -24 24 24.0275 24.0275 0 0 1 24-24z"/><path d="m232 144h16v72h-16z"/><path d="m104 200h16v16h-16z"/><path d="m136 200h16v16h-16z"/><path d="m168 200h16v16h-16z"/><path d="m200 200h16v16h-16z"/><path d="m72 296h40v16h-40z"/><path d="m128 296h40v16h-40z"/><path d="m184 296h72v16h-72z"/><path d="m72 336h24v16h-24z"/><path d="m112 336h104v16h-104z"/><path d="m72 416h24v16h-24z"/><path d="m112 416h104v16h-104z"/><path d="m232 336h56v16h-56z"/><path d="m72 376h48v16h-48z"/><path d="m136 376h80v16h-80z"/></svg>